/* XPM */
static char *stellarium[] = {
/* columns rows colors chars-per-pixel */
"64 64 256 2",
"   c #000001",
".  c #06010B",
"X  c #0B0908",
"o  c #090708",
"O  c #0B0114",
"+  c #0D021A",
"@  c #0B0614",
"#  c #13021C",
"$  c #130B18",
"%  c #18141B",
"&  c #190621",
"*  c #1C0B24",
"=  c #1E0E28",
"-  c #140B28",
";  c #1E1225",
":  c #1F1E23",
">  c #15122D",
",  c #150A3C",
"<  c #1C1835",
"1  c #0C082A",
"2  c #210B29",
"3  c #200B27",
"4  c #201126",
"5  c #23152A",
"6  c #26192D",
"7  c #271C2A",
"8  c #271C34",
"9  c #28232C",
"0  c #2C2232",
"q  c #292639",
"w  c #302736",
"e  c #332C39",
"r  c #35293A",
"t  c #37313C",
"y  c #38323D",
"u  c #41363D",
"i  c #190D46",
"p  c #190C48",
"a  c #1C1344",
"s  c #1E124B",
"d  c #1E1551",
"f  c #20154F",
"g  c #231B4C",
"h  c #221651",
"j  c #251B55",
"k  c #291F5A",
"l  c #281D57",
"z  c #3B2D44",
"x  c #3B3741",
"c  c #3C3842",
"v  c #3C354C",
"b  c #2B2355",
"n  c #2C235C",
"m  c #2F295C",
"M  c #31295E",
"N  c #31275C",
"B  c #2D2A47",
"V  c #2E2562",
"C  c #2F2966",
"Z  c #312663",
"A  c #332A65",
"S  c #352C6A",
"D  c #382E6C",
"F  c #392D67",
"G  c #3A326D",
"H  c #3B3266",
"J  c #382E70",
"K  c #3C3473",
"L  c #3F3974",
"P  c #3E3778",
"I  c #473A4B",
"U  c #473B56",
"Y  c #412D45",
"T  c #433A6A",
"R  c #413675",
"E  c #433B75",
"W  c #4A3E76",
"Q  c #443B7A",
"!  c #493E79",
"~  c #423779",
"^  c #4E4457",
"/  c #524559",
"(  c #544758",
")  c #5A454F",
"_  c #5C4D62",
"`  c #55496B",
"'  c #5D5063",
"]  c #4C4276",
"[  c #4C427A",
"{  c #49447A",
"}  c #52457A",
"|  c #55497B",
" . c #5B4C7B",
".. c #554776",
"X. c #5E517B",
"o. c #4A4661",
"O. c #66566C",
"+. c #68566C",
"@. c #755B69",
"#. c #624F7B",
"$. c #654F77",
"%. c #63537D",
"&. c #69557C",
"*. c #6C5A7D",
"=. c #685977",
"-. c #735D7D",
";. c #705C77",
":. c #6C4F66",
">. c #716077",
",. c #75637C",
"<. c #7A657C",
"1. c #7C686C",
"2. c #77525F",
"3. c #846B7E",
"4. c #846976",
"5. c #8E7174",
"6. c #926B6D",
"7. c #B08E7C",
"8. c #9F8078",
"9. c #C29B7F",
"0. c #4D4480",
"q. c #534B81",
"w. c #5A4F82",
"e. c #5C5384",
"r. c #5B5589",
"t. c #625482",
"y. c #6B5B82",
"u. c #635B8C",
"i. c #665A87",
"p. c #725E82",
"a. c #675D92",
"s. c #6D618A",
"d. c #746283",
"f. c #7B6582",
"g. c #7D6A83",
"h. c #7C6B8B",
"j. c #76678A",
"k. c #6A6391",
"l. c #736A93",
"z. c #786793",
"x. c #7D7295",
"c. c #766AA6",
"v. c #836C84",
"b. c #826D8A",
"n. c #886C84",
"m. c #8C7484",
"M. c #86728B",
"N. c #8B748B",
"B. c #887487",
"V. c #947A86",
"C. c #9B7D86",
"Z. c #947B8C",
"A. c #9D7E89",
"S. c #927584",
"D. c #8D7A93",
"F. c #867693",
"G. c #917D94",
"H. c #987A95",
"J. c #957F95",
"K. c #9D828B",
"L. c #9C8187",
"P. c #978397",
"I. c #A4858A",
"U. c #AC8C8C",
"Y. c #A68789",
"T. c #B28E8B",
"R. c #B4938C",
"E. c #BA958C",
"W. c #BD998D",
"Q. c #B69183",
"!. c #AB8D92",
"~. c #A48D96",
"^. c #AC9297",
"/. c #B49594",
"(. c #BD9B93",
"). c #B99896",
"_. c #AF928F",
"`. c #958AA9",
"'. c #9E9AB6",
"]. c #8B86A9",
"[. c #AA96A9",
"{. c #B79AA2",
"}. c #AA93AE",
"|. c #BAA5A8",
" X c #B4ABB9",
".X c #BFA297",
"XX c #C29C8E",
"oX c #C0978A",
"OX c #C39D93",
"+X c #CA9F91",
"@X c #CAA28C",
"#X c #D2A88D",
"$X c #C4A292",
"%X c #CCA493",
"&X c #CDA992",
"*X c #D2A692",
"=X c #D5AB93",
"-X c #DAAD93",
";X c #DBAE98",
":X c #DCB294",
">X c #DAB397",
",X c #E2B595",
"<X c #EBBB95",
"1X c #E6B997",
"2X c #F3BE96",
"3X c #F0BD98",
"4X c #E8B18E",
"5X c #C5A6A7",
"6X c #CEB9AF",
"7X c #D2ACA6",
"8X c #F5C39B",
"9X c #FAC59A",
"0X c #FBCA9C",
"qX c #F7C495",
"wX c #EFC094",
"eX c #D5C5B6",
"rX c #F6CCA4",
"tX c #F5CEAB",
"yX c #FACCA9",
"uX c #F9C9A5",
"iX c #FAD2AD",
"pX c #F8D6AA",
"aX c #F7CDB1",
"sX c #FAD4B4",
"dX c #F9D5BA",
"fX c #FADABC",
"gX c #F7D6B8",
"hX c #FEF1BA",
"jX c #AAA7C2",
"kX c #B7B2C8",
"lX c #B9B2CB",
"zX c #C3B9C6",
"xX c #CDC9D6",
"cX c #D5CDD6",
"vX c #DCD7DC",
"bX c #CEC3C8",
"nX c #F9DCC3",
"mX c #F9DCC7",
"MX c #E3DCDA",
"NX c #E2D2C5",
"BX c #FCE2CC",
"VX c #FCE5C7",
"CX c #FBE7D6",
"ZX c #FBF1D1",
"AX c #DBD9E4",
"SX c #E0DDE7",
"DX c #EBE9ED",
"FX c #E6E2E8",
"GX c #F4EDE9",
"HX c #FFF5E3",
"JX c #FEF9EC",
"KX c #EEEDF2",
"LX c #F4F3F5",
"PX c #FFFFFF",
"IX c #FCFBF6",
"UX c #F0ECF0",
/* pixels */
"                                                                                                                PXPXPXPXPXPXPXPX",
"    .     o o   .   .   o   .     o   . .     .   . o   o o       . .       .     o     .   .                       PXPXPXPXPXPX",
"    b A Z M M N M M M M m n M n n b m b b b b b b j j b j g g g g g g s s s a a s i a i a , a , , , , , O             PXPXPXPXPX",
"  o F Q P P P P L P L K K K K K K J K J K D D S S S S A S A A Z C V V n V k k n j j j j h f s s s s p p p i 1           PXPXPXPX",
"  o A L L L K L L K K K K K D K D J G S J J S S S S A A C A Z Z V V n n n n l l j j j d j h s d s s a i i i p , .         PXPXPX",
"    F L L L R R IXK R K K L '.K K K K K G G J J D S S S A S A C IXV C V V n k n k l k l j j b j h f f s i i i p , .       PXPXPX",
"  o F Q R E E E E ~ E K L L K L L P L L L L J K J J J J J S A S S Z Z Z V V V n n k V b n b a m n j g f f s i p p ,         PXPX",
"  . H ] E E E E E E E R R E R L R R P L 0.0.Q P K K G G G K J S S S S A C C V V V n V Z j } ] a Z m b j f s s a p p +       PXPX",
"  o H } W IXE W E W E W E E E R Q L ! r.K C r.{ P P K K K G K J D D S S S Z Z m V Z Z A n H kXr.g H M b j g h i p p ,       PXPX",
"  . T | [ } [ ] W { ! W W ] ! E E ! q.! '.lX[ q.E K K R K L K J D K D S S S S S A Z A A H b x.KXz.g T M N l f f s p p .       PX",
"  o T  ...} } } } W ..W W ] W W W [ | E AXKXJ q.Q L L K P L K L K K J S S S A A S S S S G L C xXLXt.j T N N j g s s s @       PX",
"    T  . ...| ..| | ..} ..} } ] [ } | e.r.r.u.[ ! E R K R K L K R R K P K D J S S S H H G E L x.PXDXH F T N n j s h s 1       PX",
"  . ` %. . . . . .|  . ...| | } } ..} w.q.|  .} ! E E W L R R L P J E K L K D K S S G G E ] { | DXPXxXb ] A b j g h g 1       PX",
"    ` t.%.%.%.X.%.%.%.&.X. . ...| | | | | q.} [ ! W ! E W E R E E L P K K K K K K G G G E ] | } xXPXIX .S T A m j h f 1       PX",
"    ` p.*.&.&.=.y.s.s.s.s.y.%. . . .| ..| ..} } } [ ] ] ! ! W Q R E L L P P P K K K K K E { q.| kXPXPXxXm ] F m n j j 1       PX",
"    O.d.*.-.*.y.g.x.j.h.F.h.y.%.#.%.%. . . .'...} ] ..[ { W W E ! Q L R L P K K L K K R ] { w.q. XPXPXKXH E T Z n n j -       PX",
"    +.b.-.-.<.f.g.F.DXLX}.x.j.*.&.&.%.%.#. . . . ...| } ..[ [ W ! W E { E R L L L L L Q { q.r.r.jXPXPXIXk.F { M m n l 1       PX",
"    +.v.v.f.<.b.<.D.PXPXcXv.h.p.*.*.*.&.&.%.%.%. .X. . . .} } } ] [ W E W R R ~ P L L Q 0.q.r.r.lXPXPXIX'.Z ] S Z n n -       PX",
"    @.N.n.n.n.M.G.G. XMX`.G.v.f.,.-.-.*.*.&.%.&.%.X. . . .....| } } ! W ! E E E P Q Q { 0.r.u.k.AXPXPXIXkXC | H Z M n -       PX",
"  o <.V.IXm.m.n.Z.P.G.B.P.P.B.g.g.-.f.p.-.;.*.*.&.&.&.t.%.X. .| ..] ..] W [ ! ~ L { Q 0.q.r.a.c.KXPXPXIXkXC | G F C V >       PX",
"  o 4.K.V.V.V.V.S.Z.K.P.Z.N.n.n.v.v.g.M.v.g.d.p.-.*.*.&.&.%.#.#. . .| | } } W W { { [ q.r.u.u.jXPXPXPXPXjXC q.L D Z C -       PX",
"  X 4.!.A.A.A.C.C.C.V.Z.V.S.m.m.m.m.D.M.v.D.b.<.d.-.-.-.y.&.&.#.#. . .| } } } } ] [ q.w.u.k.l.SXPXPXPXPX].K q.L D S C >       PX",
"  X 5./.Y.Y.I.'.I.C.C.C.C.C.V.V.S.Z.K.~.[.P.D.v.g.<.f.d.p.*.y.y.&.%.#.#.|  .| | | w.e.u.k.k.jXIXPXPXPXIXr.q.q.L G S S >       PX",
"  o 5.E.T.U.U._.U.Y.U.Y.I.I.A.C.K.K.V.MXLXn.V.m.n.v.g.b.v.f.d.p.p.y.y.%.t.%.#.t.e.u.i.k.k.].KXPXPXPXPXKXK r.{ Q G D S >       PX",
"  X 5.%XE.R.E.R.T.T.T.U.U.Y.Y.I.I.I.~.~.A.~.P.S.m.M.N.;.v.M.b.h.f.d.d.y.y.y.y.y.k.s.l.l.F.SXPXPXPXPXPXjXP a.{ Q G G S >       PX",
"  X 7.*XXXXXXXE.W.).E.R.R.R.T.T.U.U.!.^.~.~.K.C.V.V.3.MX+.4.N.M.F.b.h.h.j.j.j.z.l.l.x.`.FXPXPXPXPXPXLXP k.q.[ E G K D >       PX",
"  X 7.;X@X#X+X%X@XXXXXXXW.E.E.R.R.T.T.!.U.I.A.I.I.H.4.[.UXZ.v.D.D.N.D.F.x.x.x.F.F.F.jXKXPXPXPXPXPXPX].{ a.0.[ P K K D <       PX",
"  X Q.>X=X=X=X*X*X#X%X%X+X$XIXOXE.E.E.R.T.MXU.Y.I.I.!.2.vXPXcX~.G.G.G.G.D.P.P.`. XSXPXPXPXPXPXPXPXFXK l.q.q.Q R R K K <       PX",
"  X 9.wX:X,X-X:X-X-X=X*X#X#X%X%X+XXXoXW.E.R./.U.U.U.!.^.@.MXPXPXKXcXbXzXzXxXvXLXPXPXPXPXPXPXPXPXDX] k.u.w.[ { Q P P P <       PX",
"  X #X0X<X<X1X1X:X,X,X,X>X-X=X#X=X%X@XOXXXoXE.MX/.R./.^.T.4.SXPXPXPXPXPXPXPXPXPXPXPXPXPXPXPXPXFXw.l.k.r.q.[ Q E K P P <       PX",
"  X #X0XqX8XqXqX8X3X<X1X,X,X,X:X-X-X=X*X%X%XXXXXE.R.).E.).).@.5XIXPXPXPXPXPXPXPXPXPXPXPXPXLXlX&.l.l.i.w.'.{ E R R L ~ <       PX",
"  X #XpXrXrX0X0X0X0XqXqX3XwX1X1X,X:X,X=X=X*X%XXXOXOX(.(.).).5X5.5.vXIXIXPXPXPXPXPXPXIXLXvXF.s.x.z.y.e.w.| ] ! PXR ~ ! <       PX",
"  X :XfXtXtXrXtXrXyX0X0XqX9XqX3X<X<X<X,X-X-X=X*X*X+X$X$X).(.|.5X^.6.V.|.cXFXDXUXFXcX XG.s.F.D.z.d.i.t.| | [ ! W E E Q <       PX",
"  X >XVXgXgXgXgXsXiXaXtXyXyX0XqX0XqX3X<X<X1X:X-X=X=X%X+X$X$X.X).|.5X/.L.V.V.Z.V.N.B.N.D.P.F.x.f.y.i.%.| ..] [ ! W Q ! <       PX",
"  X 6XVXfXnXfXfXfXgXgXsXgXpXtXyX0X0X0X9XqX3X1X1X;X:X=X*X&X$X$X$XE.).{.|.{.{.^.^.P.~.P.G.F.M.j.d.y.&.t. .....} W W ! Q <       PX",
"  X eXCXBXBXBXBXVXnXfXnXgXgXsXgXtXtXrXrX9X9XqX<X<X1X:X>X;X%X%X$XOX(.(.)./.^.~.~.~.P.K.G.M.g.g.d.y.*.%.%. .| } } ] ! ! <       PX",
"  X eXHXCXCXCXCXBXCXBXBXVXnXfXdXgXsXsXiXyXrX9X9XqX3X<X,X-X-X=X%X%XOX(.E./._.!.!.I.H.V.N.B.v.g.f.d.*.&.$. . .| | ] [ [ <       PX",
"    MXJXCXCXCXBXBXmXmXnXnXnXmXBXVXfXdXsXaXtXyXrX9XqX8XwX1X,X-X=X&X%XOXOX(.R.!.Y.I.A.A.V.m.n.v.p.,.*.&.*.#.X. ...} } [ <       PX",
"    IXPXPXPXPXPXPXIXIXPXJXHXBXnXdXfXfXnXdXdXsXtXyXrX9XqX3X<X,X:X=X*X%XOX(.E.R.U.U.I.I.5.m.m.n.3.g.d.p.*.*.%. . .| | [ 8       PX",
"  . bXlX{.[. X6XbXMXDXGXJXJXIXIXIXJXBXdXdXdXfXsXsXtXyX0X9XqX<X<X,X-X#X%X%XXXW.R.U.Y.I.I.V.S.S.n.3.,.-.*.%.$.X.` ..| | 8       PX",
"        . .   . o @ % % 7 Y @.~.6XFXHXJXJXZXgXgXgXsXiXyXrX8XqX2X1X1X-X=X#X%XOXE.R.U.Y.L.V.m.3.3.<.v.b.b.b.z.z.k.a.a.c.8       PX",
"    & # + # O O O . . . . . O O % 0 ^ 3.eXCXHXHXVXsXaXgXiXyXrX0XqX1X,X-X#XXXE.Q.Q.R.E.(.$X5X5X|.{.[.H.M.v.;.#._ U U ` %       PX",
"    2 2 3 3 2 2 3 2 2 2 3 * & # O O O # ; r >.6XCXHXZXaXuXaXtX8XqX2X4X1X0XpXpXgXdXaX1XOXL.6.@.( I z w 9 8 0 9 9 8 0 u $       PX",
"    * * # * # & * # & # # * & 3 * * & & O O # % Y 5.NXHXHXsXuXfXhXZXhXhXpX:XQ.1.( z q B < q 9 w q r z x z x I v I I I 7       PX",
"    2 & * & & & * & & & & & & & & & & * * 3 # # # $ 5 ) eXCXHXVX#X8.@.I q a q B B v I I U ^ ^ ^ / ( ( ( ( ( / / ( ( ( 9       PX",
"    * * $ * & # & # & & & & & & & & & & & # & * & # + O $ 7 I o.` ^ v U o.( _ _ _ _ ' _ _ _ _ _ ( ' _ _ _ _ _ _ _ _ ' 9       PX",
"    2 2 * * 3 * * * * * * * * * * * * * * * * * * * * * & + @ $ w _ ,.,.;.O.O.O.+.+.+.O.O.O.O.O.O.O.+.O.O.O.O.O.O.O.+.w       PX",
"    5 5 * 2 * 3 = = = = = * = = * * * 5 * * 3 * 4 * * 4 3 * 3 * * ; 8 U +.g.<.<.>.;.>.>.>.>.>.>.,.;.,.;.>.>.>.>.;.,.,.e       PX",
"    6 5 * 4 4 4 4 4 3 4 4 4 4 4 5 * 4 4 4 4 2 4 4 4 4 5 2 4 4 4 4 2 * * 5 r / +.g.M.M.M.M.g.g.g.g.g.g.f.f.f.b.h.v.b.D.Y       PX",
"    8 6 5 6 5 5 5 5 5 5 5 5 5 5 5 5 5 5 5 5 5 5 5 5 5 5 5 5 5 5 5 5 6 5 5 4 2 5 0 z / O.>.v.M.N.N.D.G.P.~.}.}.}.}.}.}.e       PX",
"    8 6 6 6 6 5 6 6 6 6 6 6 7 6 6 6 5 7 6 6 6 6 6 6 5 6 6 6 7 5 6 6 6 6 6 6 6 6 6 5 ; ; 6 8 w r r x v z r 8 7 $ . . o         PX",
"    6 8 7 6 6 7 6 6 6 6 6 6 6 6 6 6 6 7 6 6 6 6 6 6 6 6 6 6 6 7 7 6 6 6 6 6 6 6 6 6 7 7 6 6 5 5 5 5 5 4 ; 3 % 4 ; 6 z @       PX",
"    % 0 8 0 0 0 0 0 9 0 8 0 0 0 0 0 0 0 0 9 9 0 0 0 0 0 9 0 0 0 0 0 8 0 0 7 0 0 8 7 0 7 0 0 0 0 0 8 0 0 8 0 0 0 0 0 q $       PX",
"    o w w 0 0 w 0 0 0 w w 0 0 0 0 w 0 0 0 0 q 0 0 0 0 w 0 0 0 w 0 0 0 0 0 w 0 0 q w w w 0 0 0 0 w w 0 w 0 w w 0 0 w 0 %       PX",
"      7 w w w w w w w w w w w w w w w w w w w w w q w w w w w w w w w w w w w w w w w w w w w w w w w w w w w w w w w %       PX",
"      $ e e w w e w e w e e w w w e w e e e w e e r w e w w e e e w e r w e e w e w e w w e e w w w w e w r w e w w e %       PX",
"PX      : t y e e e t e e t e e e e e t e e t e e e t e e e e e e e t e t e t e e e e e e t e t t e e t e t e e t t y %       PX",
"PX        : y x y y y y y y y y y y y y y y y y y t t y y t y y y y y y t t t t y y y y t t y y y y y y y y y y y y y %       PX",
"PXPX        X 9 t t y y c y y y x x x x x x x x x x c x x x x x x x x x x x x x x x c c x x c x x x x x x x x x y y I %       PX",
"PXPXPX          o % : : : : : 9 : : : : : : : : : : : : : : : : : : : : : : : : : : : : : : : : : : : : : : : : 9 : 9 X       PX",
"PXPXPXPX                                                                                                                      PX",
"PXPXPXPXPX                                                                                                                    PX",
"PXPXPXPXPXPXPXPX                                                                                                              PX",
"PXPXPXPXPXPXPXPXPXPXPXPXPXPXPXPXPXPXPXPXPXPXPXPXPXPXPXPXPXPXPXPXPXPXPXPXPXPXPXPXPXPXPXPXPXPXPXPXPXPXPXPXPXPXPXPXPXPXPXPXPXPXPXPX"
};
